<svg width="46" height="46" viewBox="0 0 46 46" fill="none" xmlns="http://www.w3.org/2000/svg">
<path fill-rule="evenodd" clip-rule="evenodd" d="M3.83334 23C3.83334 26.1422 4.64785 27.2004 6.27688 29.3168C9.5296 33.5424 14.9847 38.3333 23 38.3333C31.0153 38.3333 36.4703 33.5424 39.7231 29.3168C41.3521 27.2004 42.1667 26.1422 42.1667 23C42.1667 19.8578 41.3521 18.7997 39.7231 16.6833C36.4703 12.4575 31.0153 7.66667 23 7.66667C14.9847 7.66667 9.5296 12.4575 6.27688 16.6833C4.64785 18.7997 3.83334 19.8578 3.83334 23ZM23 15.8125C19.0305 15.8125 15.8125 19.0304 15.8125 23C15.8125 26.9696 19.0305 30.1875 23 30.1875C26.9696 30.1875 30.1875 26.9696 30.1875 23C30.1875 19.0304 26.9696 15.8125 23 15.8125Z" fill="#0C1E22"/>
<path d="M23.2064 28.3633C23.561 27.1335 24.2259 26.0155 25.1372 25.1167C26.0486 24.218 27.1757 23.5688 28.4104 23.2313L29.1895 23.0185L28.4116 22.801C27.179 22.4562 26.0558 21.8002 25.1498 20.896C24.2439 19.9919 23.5857 18.87 23.2384 17.638L23.0183 16.8588L22.7936 17.6367C22.439 18.8665 21.7741 19.9845 20.8628 20.8832C19.9514 21.782 18.8243 22.4312 17.5896 22.7687L16.8105 22.9815L17.5884 23.199C18.821 23.5438 19.9442 24.1998 20.8502 25.104C21.7561 26.0081 22.4143 27.13 22.7616 28.362L22.9817 29.1412L23.2064 28.3633Z" fill="#0C1E22"/>
<path d="M23.2064 28.3633C23.561 27.1335 24.2259 26.0155 25.1372 25.1167C26.0486 24.218 27.1757 23.5688 28.4104 23.2313L29.1895 23.0185L28.4116 22.801C27.179 22.4562 26.0558 21.8002 25.1498 20.896C24.2439 19.9919 23.5857 18.87 23.2384 17.638L23.0183 16.8588L22.7936 17.6367C22.439 18.8665 21.7741 19.9845 20.8628 20.8832C19.9514 21.782 18.8243 22.4312 17.5896 22.7687L16.8105 22.9815L17.5884 23.199C18.821 23.5438 19.9442 24.1998 20.8502 25.104C21.7561 26.0081 22.4143 27.13 22.7616 28.362L22.9817 29.1412L23.2064 28.3633Z" fill="#0C1E22"/>
</svg>
