<svg width="211" height="210" viewBox="0 0 211 210" fill="none" xmlns="http://www.w3.org/2000/svg">
<path fill-rule="evenodd" clip-rule="evenodd" d="M15.0155 53.6117C19.4573 51.7172 24.6012 53.765 26.5049 58.1856L18.4623 61.616C26.5049 58.1856 26.5061 58.1885 26.5049 58.1856L26.5003 58.1751L26.5346 58.2523C26.5697 58.3308 26.6299 58.4643 26.7157 58.6489C26.8871 59.0183 27.16 59.592 27.5361 60.3408C28.2892 61.8397 29.4522 64.0321 31.0397 66.6865C34.2247 72.0118 39.0637 79.1044 45.6556 86.1696C47.2093 87.8344 48.8536 89.4925 50.5904 91.1201C50.663 91.1862 50.7348 91.2533 50.8056 91.3212C63.7967 103.428 81.9201 113.866 105.963 113.866C116.541 113.866 125.898 111.856 134.146 108.626C144.873 104.423 153.865 98.0963 161.224 91.222C169.533 83.4598 175.636 75.1142 179.666 68.6783C181.673 65.473 183.144 62.7757 184.099 60.9114C184.576 59.9801 184.924 59.2597 185.142 58.7911C185.253 58.5568 185.33 58.3858 185.376 58.283L185.42 58.1856C187.325 53.7674 192.469 51.7176 196.909 53.6117C201.351 55.5063 203.409 60.6257 201.505 65.0464L193.463 61.616C201.505 65.0464 201.506 65.0444 201.505 65.0464L201.486 65.0901L201.455 65.1617L201.354 65.3868C201.271 65.5724 201.154 65.8288 201.003 66.1505C200.702 66.7937 200.265 67.6991 199.688 68.8241C198.537 71.0723 196.823 74.2088 194.518 77.889C190.995 83.5159 186.043 90.4948 179.547 97.532L186.525 104.476C189.942 107.877 189.942 113.391 186.525 116.791C183.107 120.192 177.567 120.192 174.15 116.791L166.799 109.475C161.861 113.444 156.336 117.187 150.201 120.417L157.046 130.888C159.682 134.919 158.535 140.313 154.484 142.936C150.434 145.559 145.014 144.418 142.378 140.387L133.755 127.197C127.814 129.01 121.468 130.295 114.713 130.896V144.345C114.713 149.155 110.794 153.054 105.963 153.054C101.13 153.054 97.2127 149.155 97.2127 144.345V130.898C90.4341 130.295 84.089 129.008 78.167 127.2L69.5465 140.387C66.9109 144.418 61.4907 145.559 57.4402 142.936C53.3897 140.313 52.2426 134.919 54.8782 130.888L61.7242 120.416C55.5982 117.189 50.0717 113.446 45.128 109.473L37.7745 116.791C34.3575 120.192 28.8172 120.192 25.4002 116.791C21.983 113.391 21.983 107.877 25.4002 104.476L32.3778 97.532C24.984 89.5221 19.5803 81.5775 16.0022 75.5948C14.1717 72.5344 12.8054 69.9645 11.8836 68.1297C11.4224 67.2117 11.0715 66.4757 10.8285 65.9522C10.707 65.6904 10.6124 65.4815 10.5444 65.3293L10.4623 65.144L10.4361 65.084L10.4267 65.0624L10.423 65.0537C10.4213 65.0498 10.4198 65.0464 18.4623 61.616L10.423 65.0537C8.51936 60.6331 10.5737 55.5063 15.0155 53.6117Z" fill="#0C1E22"/>
</svg>
